<svg width="375" height="70" viewBox="0 0 375 70" fill="none" xmlns="http://www.w3.org/2000/svg">
<g clip-path="url(#clip0_927_11803)">
<path d="M370.154 55.8724V54.8336H370.808C371.154 54.8336 371.654 54.8721 371.654 55.2953C371.654 55.7185 371.385 55.8724 370.962 55.8724H370.154ZM370.154 56.6034H370.616L371.654 58.4116H372.77L371.616 56.5264C372.193 56.5649 372.655 56.1417 372.693 55.5646V55.4107C372.693 54.4104 372.001 54.1026 370.847 54.1026H369.192V58.4116H370.154V56.6034ZM375.002 56.2571C375.002 53.7179 373.04 52.2559 370.847 52.2559C368.654 52.2559 366.691 53.7179 366.691 56.2571C366.691 58.7963 368.654 60.2583 370.847 60.2583C373.04 60.2583 375.002 58.7963 375.002 56.2571ZM373.771 56.2571C373.847 57.873 372.578 59.258 370.962 59.335H370.847C369.154 59.4119 367.73 58.0653 367.653 56.3725C367.576 54.6797 368.923 53.2562 370.616 53.1792C372.309 53.1023 373.732 54.4488 373.809 56.1417C373.771 56.1801 373.771 56.2186 373.771 56.2571Z" fill="black"/>
<path d="M222.453 13.5125V58.9111H235.264V13.5125H222.453ZM121.652 13.4355V58.8726H134.579V23.5925L144.659 23.631C147.968 23.631 150.277 24.4389 151.854 26.1318C153.893 28.2863 154.701 31.7873 154.701 38.1355V58.8726H167.243V33.788C167.243 15.8594 155.817 13.4355 144.659 13.4355H121.652ZM243.113 13.5125V58.9111H263.888C274.969 58.9111 278.585 57.0644 282.471 52.9477C285.241 50.0622 287.011 43.6756 287.011 36.7119C287.011 30.3254 285.51 24.6313 282.856 21.0918C278.162 14.7436 271.314 13.5125 261.08 13.5125H243.113ZM255.809 23.3617H261.311C269.313 23.3617 274.469 26.9397 274.469 36.2503C274.469 45.5608 269.313 49.1773 261.311 49.1773H255.809V23.3617ZM203.985 13.5125L193.29 49.4851L183.056 13.5125H169.205L183.825 58.9111H202.293L217.066 13.5125H203.985ZM293.013 58.9111H305.824V13.5125H293.013V58.9111ZM328.947 13.5125L311.057 58.8726H323.676L326.523 50.8317H347.683L350.377 58.8341H364.112L346.068 13.5125H328.947ZM337.257 21.7843L345.029 43.0216H329.255L337.257 21.7843Z" fill="white"/>
<path d="M38.9735 21.0534V14.8207C39.5891 14.7822 40.2047 14.7437 40.8203 14.7437C57.9024 14.2051 69.0982 29.4406 69.0982 29.4406C69.0982 29.4406 57.0175 46.215 44.052 46.215C42.3207 46.215 40.6279 45.9456 39.012 45.407V26.4781C45.6679 27.2861 47.0145 30.21 50.9772 36.8659L59.8646 29.4021C59.8646 29.4021 53.3626 20.8995 42.4361 20.8995C41.2819 20.861 40.1277 20.938 38.9735 21.0534ZM38.9735 0.431641V9.7422L40.8203 9.62678C64.5583 8.81884 80.0631 29.0943 80.0631 29.0943C80.0631 29.0943 62.2884 50.7163 43.7827 50.7163C42.1668 50.7163 40.5894 50.5625 39.012 50.2931V56.0641C40.3201 56.218 41.6667 56.3335 42.9748 56.3335C60.2108 56.3335 72.6762 47.5231 84.7569 37.1352C86.7575 38.7511 94.9523 42.6369 96.6451 44.3298C85.1801 53.9481 58.4411 61.6813 43.2826 61.6813C41.8206 61.6813 40.4355 61.6043 39.0505 61.4504V69.5683H104.532V0.431641L38.9735 0.431641ZM38.9735 45.407V50.3316C23.0456 47.4846 18.6211 30.9026 18.6211 30.9026C18.6211 30.9026 26.2773 22.4384 38.9735 21.0534V26.4396H38.9351C32.2792 25.6317 27.0468 31.8644 27.0468 31.8644C27.0468 31.8644 30.0092 42.3676 38.9735 45.407ZM10.6956 30.21C10.6956 30.21 20.1216 16.2827 39.012 14.8207V9.7422C18.0825 11.435 0 29.1328 0 29.1328C0 29.1328 10.2339 58.7573 38.9735 61.4504V56.0641C17.8901 53.448 10.6956 30.21 10.6956 30.21Z" fill="white"/>
</g>
<defs>
<clipPath id="clip0_927_11803">
<rect width="375" height="70" fill="white"/>
</clipPath>
</defs>
</svg>
