<svg width="340" height="135" viewBox="0 0 340 135" fill="none" xmlns="http://www.w3.org/2000/svg">
<g clip-path="url(#clip0_1071_8898)">
<path d="M317.896 85.55C317.445 85.55 316.994 85.85 316.693 86.6C313.687 95.3 309.479 100.55 306.022 100.55C304.068 100.55 303.317 98.3 303.317 95C303.317 86.45 308.427 68.3 310.982 59.9C311.283 58.85 311.433 57.95 311.433 57.2C311.433 54.8 310.08 53.6 306.774 53.6C303.317 53.6 299.409 54.95 295.802 61.4C294.599 55.7 290.691 53.3 285.281 53.3C279.118 53.3 273.106 57.35 268.146 63.8C263.186 70.25 257.325 72.35 252.966 71.3C256.122 63.65 257.325 57.8 257.325 53.6C257.325 46.85 254.018 42.8 248.607 42.8C240.491 42.8 235.832 50.6 235.832 58.7C235.832 65 238.687 71.45 245 74.6C239.739 86.45 232.074 97.25 229.068 97.25C225.311 97.25 224.108 78.8 224.409 65.6C224.559 58.1 225.16 57.65 225.16 55.4C225.16 54.05 224.259 53.15 220.802 53.15C212.836 53.15 210.281 59.9 209.98 67.7C209.83 70.7 209.379 73.55 208.627 76.4C205.321 88.25 198.407 97.4 193.898 97.4C191.794 97.4 191.192 95.3 191.192 92.6C191.192 84.05 196.002 73.25 196.002 64.1C196.002 57.35 192.996 53.15 187.435 53.15C180.822 53.15 172.255 60.95 163.988 75.5C166.693 64.4 167.745 53.6 159.78 53.6C157.976 53.6 156.323 54.05 154.82 54.95C153.768 55.4 153.166 56.45 153.166 57.65C153.918 69.5 143.547 99.95 133.778 99.95C131.974 99.95 131.072 98 131.072 94.85C131.072 86.3 136.182 68.15 138.737 59.75C139.038 58.7 139.188 57.8 139.188 56.9C139.188 54.65 137.836 53.45 134.529 53.45C131.072 53.45 127.164 54.8 123.557 61.25C122.204 55.55 118.447 53.15 113.036 53.15C104.168 53.15 94.3988 62.45 90.0401 74.6C84.1784 90.8 72.6052 106.55 56.8236 106.55C42.5451 106.55 35.0301 94.7 35.0301 75.95C35.0301 48.8 55.02 26.75 69.7495 26.75C76.8136 26.75 80.1202 31.25 80.1202 38.15C80.1202 46.55 75.4609 50.3 75.4609 53.6C75.4609 54.5 76.2124 55.55 77.8657 55.55C84.3287 55.55 91.8437 48.05 91.8437 37.7C91.8437 27.35 83.7275 20 68.998 20C44.499 20 20 44.45 20 75.95C20 101 32.3246 116 53.6673 116C68.2465 116 81.022 104.75 87.7856 91.55C88.5371 102.5 93.497 108.2 101.162 108.2C107.926 108.2 113.337 104.15 117.545 97.1C119.198 104.45 123.407 108.05 128.968 108.05C135.281 108.05 140.691 104 145.651 96.65C145.651 102.5 146.854 108.05 151.964 108.05C154.369 108.05 157.224 107.45 157.675 105.35C163.086 83.3 176.313 65.15 180.371 65.15C181.573 65.15 181.874 66.35 181.874 67.7C181.874 73.7 177.665 86 177.665 93.8C177.665 102.35 181.273 107.9 188.788 107.9C197.054 107.9 205.471 97.85 211.032 83C212.836 96.8 216.593 107.9 222.455 107.9C229.669 107.9 242.745 92.6 250.561 76.4C253.567 76.85 258.226 76.7 262.735 73.55C260.782 78.35 259.729 83.6 259.729 88.7C259.729 103.7 266.944 107.9 273.106 107.9C279.87 107.9 285.281 103.85 289.489 96.8C290.842 103.1 294.449 107.75 300.912 107.75C310.982 107.75 319.85 97.4 319.85 88.85C320 87.05 318.948 85.55 317.896 85.55ZM107.475 99.8C103.417 99.8 101.764 95.75 101.764 89.6C101.764 78.95 109.128 61.1 116.794 61.1C120.1 61.1 121.453 65 121.453 69.95C121.453 80.75 114.539 99.8 107.475 99.8ZM247.705 68C245.301 65.15 244.399 61.1 244.399 57.65C244.399 53.3 246.052 49.7 247.856 49.7C249.659 49.7 250.411 51.5 250.411 54.2C250.261 58.4 248.758 64.85 247.705 68ZM279.419 99.8C275.361 99.8 273.707 95 273.707 89.6C273.707 79.25 281.072 61.1 288.737 61.1C292.044 61.1 293.246 65 293.246 69.95C293.397 80.75 286.633 99.8 279.419 99.8Z" fill="white"/>
</g>
<defs>
<clipPath id="clip0_1071_8898">
<rect width="300" height="96" fill="white" transform="translate(20 20)"/>
</clipPath>
</defs>
</svg>
